<svg width="32" height="32" viewBox="0 0 32 32" fill="none" xmlns="http://www.w3.org/2000/svg">
<path d="M12.1913 27.7088V23.6197C12.1913 22.5835 13.0339 21.7416 14.0776 21.7351H17.9098C18.9582 21.7351 19.808 22.5789 19.808 23.6197V27.697C19.808 28.5957 20.5384 29.3261 21.4436 29.3326H24.0581C25.2792 29.3358 26.4513 28.8564 27.3159 28.0003C28.1805 27.1442 28.6663 25.9817 28.6663 24.7694V13.1538C28.6663 12.1745 28.2291 11.2456 27.4725 10.6173L18.5903 3.56504C17.0377 2.33151 14.8202 2.37136 13.3135 3.65986L4.62236 10.6173C3.83 11.2271 3.35641 12.1588 3.33301 13.1538V24.7575C3.33301 27.2843 5.39618 29.3326 7.94124 29.3326H10.4961C10.9319 29.3358 11.351 29.1661 11.6603 28.8612C11.9696 28.5564 12.1436 28.1416 12.1436 27.7088H12.1913Z" fill="#0D090C"/>
</svg>
