<svg width="32" height="32" viewBox="0 0 32 32" fill="none" xmlns="http://www.w3.org/2000/svg">
<path fill-rule="evenodd" clip-rule="evenodd" d="M11.3758 3.91504C14.289 2.22238 17.8697 2.25197 20.7555 3.99254C23.6129 5.76857 25.3496 8.93825 25.3334 12.3479C25.2669 15.7353 23.4047 18.9193 21.077 21.3808C19.7334 22.8079 18.2305 24.0698 16.5988 25.1407C16.4307 25.2379 16.2467 25.303 16.0556 25.3327C15.8718 25.3249 15.6927 25.2705 15.5347 25.1746C13.0436 23.5654 10.8581 21.5114 9.08343 19.1113C7.59844 17.1078 6.75477 14.6874 6.66699 12.1786C6.66507 8.76234 8.46268 5.60771 11.3758 3.91504ZM13.0592 13.5924C13.5492 14.8005 14.7059 15.5885 15.9891 15.5885C16.8298 15.5945 17.6379 15.2578 18.2334 14.6533C18.8289 14.0488 19.1623 13.2269 19.1593 12.3705C19.1638 11.0634 18.3943 9.88243 17.21 9.37905C16.0258 8.87566 14.6604 9.14915 13.7514 10.0718C12.8424 10.9945 12.5692 12.3843 13.0592 13.5924Z" fill="black"/>
<ellipse opacity="0.4" cx="16.0007" cy="27.9993" rx="6.66667" ry="1.33333" fill="black"/>
</svg>
