<svg width="32" height="32" viewBox="0 0 32 32" fill="none" xmlns="http://www.w3.org/2000/svg">
<path opacity="0.4" fill-rule="evenodd" clip-rule="evenodd" d="M12.2513 4.99629C12.2513 4.44585 11.7966 4 11.2366 4H11.2353L9.06331 4.00131C6.14198 4.00392 3.76465 6.33775 3.76465 9.20372V11.6827C3.76465 12.2318 4.21932 12.679 4.77931 12.679C5.33931 12.679 5.79532 12.2318 5.79532 11.6827V9.20372C5.79532 7.43472 7.26198 5.99519 9.06465 5.99258L11.2366 5.99127C11.798 5.99127 12.2513 5.54543 12.2513 4.99629ZM22.9245 4.00039H20.8005C20.2405 4.00039 19.7858 4.44624 19.7858 4.99668C19.7858 5.54582 20.2405 5.99036 20.8005 5.99036H22.9245C24.7338 5.99036 26.2058 7.4338 26.2058 9.20803V11.6831C26.2058 12.2322 26.6605 12.6794 27.2205 12.6794C27.7818 12.6794 28.2352 12.2322 28.2352 11.6831V9.20803C28.2352 6.33553 25.8538 4.00039 22.9245 4.00039ZM12.3177 8.99021H19.683C20.4897 8.99021 21.2644 9.30793 21.8284 9.87406C22.3964 10.4454 22.711 11.2129 22.7097 12.0118V13.6723C22.703 13.8671 22.5444 14.0253 22.3457 14.0305H9.65238C9.45505 14.024 9.29638 13.8658 9.29238 13.6723V12.0118C9.27771 10.3578 10.6324 9.00721 12.3177 8.99021Z" fill="#0D090C"/>
<path d="M29.6517 16.0547H2.34901C1.78901 16.0547 1.33301 16.5005 1.33301 17.051C1.33301 17.6001 1.78901 18.0447 2.34901 18.0447H3.76367V22.796C3.76367 25.662 6.14234 27.9958 9.06367 27.9984L11.2357 27.9997C11.797 27.9997 12.2503 27.5539 12.2517 27.0034C12.2517 26.4543 11.797 26.0084 11.237 26.0084L9.06634 26.0071C7.26234 26.0045 5.79434 24.565 5.79434 22.796V18.0447H9.29167V19.3665C9.27834 21.0204 10.6317 22.3724 12.317 22.3881H19.6823C21.369 22.3724 22.7223 21.0204 22.709 19.3665V18.0447H26.2063V22.7908C26.2063 24.5663 24.7343 26.0084 22.925 26.0084H20.801C20.2397 26.0084 19.785 26.4543 19.785 27.0034C19.785 27.5539 20.2397 27.9997 20.801 27.9997H22.925C25.853 27.9997 28.2357 25.6646 28.2357 22.7908V18.0447H29.6517C30.2117 18.0447 30.6663 17.6001 30.6663 17.051C30.6663 16.5005 30.2117 16.0547 29.6517 16.0547Z" fill="#0D090C"/>
</svg>
